<svg width="128" height="128" viewBox="0 0 128 128" fill="none" xmlns="http://www.w3.org/2000/svg">
<path d="M126.725 38.4006C126.725 38.4006 125.475 29.5756 121.625 25.7006C116.75 20.6006 111.3 20.5756 108.8 20.2756C90.9 18.9756 64.025 18.9756 64.025 18.9756H63.975C63.975 18.9756 37.1 18.9756 19.2 20.2756C16.7 20.5756 11.25 20.6006 6.375 25.7006C2.525 29.5756 1.3 38.4006 1.3 38.4006C1.3 38.4006 0 48.7756 0 59.1256V68.8256C0 79.1756 1.275 89.5506 1.275 89.5506C1.275 89.5506 2.525 98.3756 6.35 102.251C11.225 107.351 17.625 107.176 20.475 107.726C30.725 108.701 64 109.001 64 109.001C64 109.001 90.9 108.951 108.8 107.676C111.3 107.376 116.75 107.351 121.625 102.251C125.475 98.3756 126.725 89.5506 126.725 89.5506C126.725 89.5506 128 79.2006 128 68.8256V59.1256C128 48.7756 126.725 38.4006 126.725 38.4006ZM50.775 80.6006V44.6256L85.35 62.6756L50.775 80.6006Z" fill="white"/>
</svg>
